<mxfile host="app.diagrams.net" modified="2024-05-20T20:27:45.103Z" agent="Mozilla/5.0 (Windows NT 10.0; Win64; x64) AppleWebKit/537.36 (KHTML, like Gecko) Chrome/124.0.0.0 Safari/537.36" etag="D2SIF0ymIXz_J_pz-WLI" version="24.4.4" type="github">
  <diagram name="Page-1" id="77QlX9B5QSOT9iROhKbY">
    <mxGraphModel dx="1050" dy="565" grid="1" gridSize="10" guides="1" tooltips="1" connect="1" arrows="1" fold="1" page="1" pageScale="1" pageWidth="850" pageHeight="1100" math="0" shadow="0">
      <root>
        <mxCell id="0" />
        <mxCell id="1" parent="0" />
        <mxCell id="Mjx7lTo89Cnap4eM9-SY-1" value="" style="rounded=0;html=1;whiteSpace=wrap;" parent="1" vertex="1">
          <mxGeometry x="72.22" y="30" width="680" height="400" as="geometry" />
        </mxCell>
        <mxCell id="Mjx7lTo89Cnap4eM9-SY-4" value="" style="shape=image;verticalLabelPosition=bottom;labelBackgroundColor=default;verticalAlign=top;aspect=fixed;imageAspect=0;image=https://www.blognone.com/sites/default/files/externals/815ffa6557ecfea1f4c45406cb5dd60c.png;" parent="1" vertex="1">
          <mxGeometry x="350" y="110" width="124.44" height="70" as="geometry" />
        </mxCell>
        <mxCell id="Mjx7lTo89Cnap4eM9-SY-7" value="" style="shape=image;verticalLabelPosition=bottom;labelBackgroundColor=default;verticalAlign=top;aspect=fixed;imageAspect=0;image=https://www.skedler.com/blog/wp-content/uploads/2021/08/grafana-logo.png;" parent="1" vertex="1">
          <mxGeometry x="610" y="130" width="90" height="45" as="geometry" />
        </mxCell>
        <mxCell id="Mjx7lTo89Cnap4eM9-SY-8" value="" style="shape=image;verticalLabelPosition=bottom;labelBackgroundColor=default;verticalAlign=top;aspect=fixed;imageAspect=0;image=https://static-00.iconduck.com/assets.00/dataset-icon-1610x2048-skonoew2.png;" parent="1" vertex="1">
          <mxGeometry x="160" y="115" width="47.15" height="60" as="geometry" />
        </mxCell>
        <mxCell id="Mjx7lTo89Cnap4eM9-SY-20" style="edgeStyle=orthogonalEdgeStyle;rounded=0;orthogonalLoop=1;jettySize=auto;html=1;" parent="1" source="Mjx7lTo89Cnap4eM9-SY-10" target="Mjx7lTo89Cnap4eM9-SY-12" edge="1">
          <mxGeometry relative="1" as="geometry" />
        </mxCell>
        <mxCell id="Mjx7lTo89Cnap4eM9-SY-10" value="&lt;div style=&quot;font-size: 13px;&quot;&gt;&lt;font face=&quot;Comic Sans MS&quot; style=&quot;font-size: 13px;&quot;&gt;&lt;br&gt;&lt;/font&gt;&lt;/div&gt;&lt;div style=&quot;font-size: 13px;&quot;&gt;&lt;font face=&quot;jRZ_hLCkR11SajK1UYCL&quot; style=&quot;font-size: 13px;&quot;&gt;&lt;br&gt;&lt;/font&gt;&lt;/div&gt;&lt;div style=&quot;font-size: 13px;&quot;&gt;&lt;font face=&quot;jRZ_hLCkR11SajK1UYCL&quot; style=&quot;font-size: 13px;&quot;&gt;&lt;br&gt;&lt;/font&gt;&lt;/div&gt;&lt;div style=&quot;font-size: 13px;&quot;&gt;&lt;font face=&quot;jRZ_hLCkR11SajK1UYCL&quot; style=&quot;font-size: 13px;&quot;&gt;&lt;br&gt;&lt;/font&gt;&lt;/div&gt;&lt;div style=&quot;font-size: 13px;&quot;&gt;&lt;font face=&quot;jRZ_hLCkR11SajK1UYCL&quot; style=&quot;font-size: 13px;&quot;&gt;&lt;br&gt;&lt;/font&gt;&lt;/div&gt;&lt;div style=&quot;font-size: 13px;&quot;&gt;&lt;font face=&quot;jRZ_hLCkR11SajK1UYCL&quot; style=&quot;font-size: 13px;&quot;&gt;&lt;br&gt;&lt;/font&gt;&lt;/div&gt;&lt;div style=&quot;font-size: 13px;&quot;&gt;&lt;font style=&quot;font-size: 13px;&quot;&gt;Dataset&lt;/font&gt;&lt;/div&gt;" style="rounded=0;whiteSpace=wrap;html=1;fillColor=none;" parent="1" vertex="1">
          <mxGeometry x="145.37" y="100" width="76.42" height="110" as="geometry" />
        </mxCell>
        <mxCell id="Mjx7lTo89Cnap4eM9-SY-12" value="&lt;div&gt;&lt;font face=&quot;Helvetica&quot;&gt;&lt;br&gt;&lt;/font&gt;&lt;/div&gt;&lt;div&gt;&lt;font face=&quot;BejTbtJbiQdJo2xUKbsl&quot;&gt;&lt;br&gt;&lt;/font&gt;&lt;/div&gt;&lt;div&gt;&lt;font face=&quot;BejTbtJbiQdJo2xUKbsl&quot;&gt;&lt;br&gt;&lt;/font&gt;&lt;/div&gt;&lt;div&gt;&lt;font face=&quot;BejTbtJbiQdJo2xUKbsl&quot;&gt;&lt;br&gt;&lt;/font&gt;&lt;/div&gt;&lt;div&gt;&lt;font face=&quot;BejTbtJbiQdJo2xUKbsl&quot;&gt;&lt;br&gt;&lt;/font&gt;&lt;/div&gt;&lt;div&gt;&lt;br&gt;&lt;/div&gt;&lt;div&gt;&lt;font face=&quot;Helvetica&quot;&gt;Apache Spark&lt;/font&gt;&lt;/div&gt;" style="rounded=0;whiteSpace=wrap;html=1;fillColor=none;" parent="1" vertex="1">
          <mxGeometry x="365" y="100" width="90" height="110" as="geometry" />
        </mxCell>
        <mxCell id="Mjx7lTo89Cnap4eM9-SY-26" style="edgeStyle=orthogonalEdgeStyle;rounded=0;orthogonalLoop=1;jettySize=auto;html=1;entryX=1;entryY=0.5;entryDx=0;entryDy=0;" parent="1" source="Mjx7lTo89Cnap4eM9-SY-13" target="Mjx7lTo89Cnap4eM9-SY-12" edge="1">
          <mxGeometry relative="1" as="geometry" />
        </mxCell>
        <mxCell id="Mjx7lTo89Cnap4eM9-SY-13" value="&lt;div&gt;&lt;br&gt;&lt;/div&gt;&lt;div&gt;&lt;br&gt;&lt;/div&gt;&lt;div&gt;&lt;br&gt;&lt;/div&gt;&lt;div&gt;&lt;br&gt;&lt;/div&gt;&lt;div&gt;&lt;br&gt;&lt;/div&gt;&lt;div&gt;&lt;br&gt;&lt;/div&gt;&lt;div&gt;Grafana&lt;/div&gt;" style="rounded=0;whiteSpace=wrap;html=1;fillColor=none;" parent="1" vertex="1">
          <mxGeometry x="610" y="100" width="95" height="110" as="geometry" />
        </mxCell>
        <mxCell id="Mjx7lTo89Cnap4eM9-SY-14" value="Biểu đồ&amp;nbsp;" style="text;html=1;align=center;verticalAlign=middle;resizable=0;points=[];autosize=1;strokeColor=none;fillColor=none;" parent="1" vertex="1">
          <mxGeometry x="620" y="70" width="70" height="30" as="geometry" />
        </mxCell>
        <mxCell id="Mjx7lTo89Cnap4eM9-SY-15" value="Xử lý dữ liệu" style="text;html=1;align=center;verticalAlign=middle;resizable=0;points=[];autosize=1;strokeColor=none;fillColor=none;" parent="1" vertex="1">
          <mxGeometry x="365" y="68" width="90" height="30" as="geometry" />
        </mxCell>
        <mxCell id="Mjx7lTo89Cnap4eM9-SY-16" value="Luồng dữ liệu" style="text;html=1;align=center;verticalAlign=middle;resizable=0;points=[];autosize=1;strokeColor=none;fillColor=none;" parent="1" vertex="1">
          <mxGeometry x="130" y="68" width="100" height="30" as="geometry" />
        </mxCell>
        <mxCell id="Mjx7lTo89Cnap4eM9-SY-28" value="" style="shape=image;verticalLabelPosition=bottom;labelBackgroundColor=default;verticalAlign=top;aspect=fixed;imageAspect=0;image=https://techvccloud.mediacdn.vn/2018/10/15/kubernetes-15395717142261348450270-0-57-799-1479-crop-1539571719483162513005.png;" parent="1" vertex="1">
          <mxGeometry x="80.00000000000003" y="326.09" width="185" height="103.91" as="geometry" />
        </mxCell>
        <mxCell id="Mjx7lTo89Cnap4eM9-SY-29" value="" style="shape=image;verticalLabelPosition=bottom;labelBackgroundColor=default;verticalAlign=top;aspect=fixed;imageAspect=0;image=https://miro.medium.com/v2/resize:fit:684/1*XF6UMNpSu77WpUm8EsSP0w.png;" parent="1" vertex="1">
          <mxGeometry x="440" y="280" width="44" height="36.28" as="geometry" />
        </mxCell>
        <mxCell id="Mjx7lTo89Cnap4eM9-SY-30" value="" style="shape=image;verticalLabelPosition=bottom;labelBackgroundColor=default;verticalAlign=top;aspect=fixed;imageAspect=0;image=https://miro.medium.com/v2/resize:fit:684/1*XF6UMNpSu77WpUm8EsSP0w.png;" parent="1" vertex="1">
          <mxGeometry x="440" y="90" width="44" height="36.28" as="geometry" />
        </mxCell>
        <mxCell id="Mjx7lTo89Cnap4eM9-SY-31" value="" style="shape=image;verticalLabelPosition=bottom;labelBackgroundColor=default;verticalAlign=top;aspect=fixed;imageAspect=0;image=https://miro.medium.com/v2/resize:fit:684/1*XF6UMNpSu77WpUm8EsSP0w.png;" parent="1" vertex="1">
          <mxGeometry x="680" y="90" width="44" height="36.28" as="geometry" />
        </mxCell>
        <mxCell id="o8t0xGVmboj8QeVOVYPf-1" value="" style="shape=image;verticalLabelPosition=bottom;labelBackgroundColor=default;verticalAlign=top;aspect=fixed;imageAspect=0;image=https://upload.wikimedia.org/wikipedia/commons/thumb/3/38/Prometheus_software_logo.svg/1200px-Prometheus_software_logo.svg.png;" vertex="1" parent="1">
          <mxGeometry x="637.33" y="315.19" width="40.34" height="40" as="geometry" />
        </mxCell>
        <mxCell id="o8t0xGVmboj8QeVOVYPf-6" style="edgeStyle=orthogonalEdgeStyle;rounded=0;orthogonalLoop=1;jettySize=auto;html=1;entryX=0.5;entryY=1;entryDx=0;entryDy=0;" edge="1" parent="1" source="o8t0xGVmboj8QeVOVYPf-4" target="Mjx7lTo89Cnap4eM9-SY-13">
          <mxGeometry relative="1" as="geometry" />
        </mxCell>
        <mxCell id="o8t0xGVmboj8QeVOVYPf-7" style="edgeStyle=orthogonalEdgeStyle;rounded=0;orthogonalLoop=1;jettySize=auto;html=1;" edge="1" parent="1" source="o8t0xGVmboj8QeVOVYPf-4" target="Mjx7lTo89Cnap4eM9-SY-28">
          <mxGeometry relative="1" as="geometry">
            <Array as="points">
              <mxPoint x="410" y="338" />
              <mxPoint x="410" y="378" />
            </Array>
          </mxGeometry>
        </mxCell>
        <mxCell id="o8t0xGVmboj8QeVOVYPf-8" style="edgeStyle=orthogonalEdgeStyle;rounded=0;orthogonalLoop=1;jettySize=auto;html=1;" edge="1" parent="1" source="o8t0xGVmboj8QeVOVYPf-4" target="Mjx7lTo89Cnap4eM9-SY-12">
          <mxGeometry relative="1" as="geometry" />
        </mxCell>
        <mxCell id="o8t0xGVmboj8QeVOVYPf-4" value="&lt;div&gt;&lt;br&gt;&lt;/div&gt;&lt;div&gt;&lt;br&gt;&lt;/div&gt;&lt;div&gt;&lt;br&gt;&lt;/div&gt;&lt;div&gt;&lt;br&gt;&lt;/div&gt;&lt;div&gt;&lt;br&gt;&lt;/div&gt;&lt;div&gt;&lt;br&gt;&lt;/div&gt;&lt;div&gt;Prometheus&lt;/div&gt;" style="rounded=0;whiteSpace=wrap;html=1;fillColor=none;" vertex="1" parent="1">
          <mxGeometry x="610" y="280" width="95" height="115.98" as="geometry" />
        </mxCell>
        <mxCell id="o8t0xGVmboj8QeVOVYPf-9" value="Thu thập biểu đồ" style="text;html=1;align=center;verticalAlign=middle;whiteSpace=wrap;rounded=0;" vertex="1" parent="1">
          <mxGeometry x="600" y="250" width="110" height="30" as="geometry" />
        </mxCell>
      </root>
    </mxGraphModel>
  </diagram>
</mxfile>
